<mxfile host="app.diagrams.net" modified="2023-12-09T11:40:00.358Z" agent="Mozilla/5.0 (Macintosh; Intel Mac OS X 10_15_7) AppleWebKit/537.36 (KHTML, like Gecko) Chrome/116.0.0.0 Safari/537.36" etag="fFf4mGOhhPxDXwW3iUSd" version="22.1.7" type="github">
  <diagram name="Page-1" id="i57ieQ8ah64VA5IU5zeG">
    <mxGraphModel dx="794" dy="461" grid="1" gridSize="10" guides="1" tooltips="1" connect="1" arrows="1" fold="1" page="1" pageScale="1" pageWidth="850" pageHeight="1100" math="0" shadow="0">
      <root>
        <mxCell id="0" />
        <mxCell id="1" parent="0" />
        <mxCell id="BdwfQ0zuwwsD2Sn7SIAs-1" value="Campaign" style="whiteSpace=wrap;html=1;" vertex="1" parent="1">
          <mxGeometry x="70" y="50" width="140" height="30" as="geometry" />
        </mxCell>
        <mxCell id="BdwfQ0zuwwsD2Sn7SIAs-2" value="Promo" style="whiteSpace=wrap;html=1;" vertex="1" parent="1">
          <mxGeometry x="140" y="100" width="140" height="30" as="geometry" />
        </mxCell>
        <mxCell id="BdwfQ0zuwwsD2Sn7SIAs-3" value="Coupon" style="whiteSpace=wrap;html=1;" vertex="1" parent="1">
          <mxGeometry x="140" y="140" width="140" height="30" as="geometry" />
        </mxCell>
        <mxCell id="BdwfQ0zuwwsD2Sn7SIAs-4" value="Voucher" style="whiteSpace=wrap;html=1;" vertex="1" parent="1">
          <mxGeometry x="140" y="183" width="140" height="30" as="geometry" />
        </mxCell>
        <mxCell id="BdwfQ0zuwwsD2Sn7SIAs-5" value="Referal" style="whiteSpace=wrap;html=1;" vertex="1" parent="1">
          <mxGeometry x="140" y="230" width="140" height="30" as="geometry" />
        </mxCell>
      </root>
    </mxGraphModel>
  </diagram>
</mxfile>
